<?xml version="1.0" standalone="no"?>
<!DOCTYPE svg PUBLIC "-//W3C//DTD SVG 20010904//EN"
 "http://www.w3.org/TR/2001/REC-SVG-20010904/DTD/svg10.dtd">
<svg version="1.0" xmlns="http://www.w3.org/2000/svg"
 width="160.000000pt" height="37.000000pt" viewBox="0 0 1920.000000 528.000000"
 preserveAspectRatio="xMidYMid meet">
<metadata>

</metadata>
<g transform="translate(0.000000,528.000000) scale(0.100000,-0.100000)"
fill="#cc6633" stroke="none">
<path d="M3189 4305 c-104 -17 -216 -45 -329 -84 -66 -22 -81 -30 -65 -36 268
-102 437 -273 495 -501 11 -43 20 -95 20 -117 0 -38 -1 -36 -47 54 -81 163
-214 272 -403 330 -62 20 -97 24 -200 23 -162 0 -260 -27 -386 -106 -244 -152
-363 -502 -268 -786 65 -193 193 -335 372 -414 l67 -29 -70 6 c-83 8 -199 44
-275 87 -85 48 -207 178 -257 273 -22 44 -47 99 -54 123 -7 23 -16 42 -21 42
-4 0 -8 -1 -8 -2 0 -2 -16 -50 -35 -107 -57 -168 -79 -303 -79 -471 0 -133 2
-152 28 -225 38 -110 87 -187 171 -270 80 -78 153 -125 253 -163 59 -22 83
-25 207 -26 77 -1 160 2 185 6 59 10 35 -4 -72 -43 -120 -44 -244 -57 -358
-37 -100 18 -211 65 -291 124 -27 20 -49 31 -49 25 0 -6 11 -40 25 -76 82
-219 232 -415 408 -534 75 -51 243 -127 342 -156 173 -50 311 -57 475 -26 85
17 143 34 315 96 56 20 -63 -62 -160 -110 -120 -60 -219 -89 -359 -106 -121
-15 -330 -2 -430 28 -36 10 -5 -16 101 -87 247 -166 535 -271 818 -300 225
-24 515 3 725 66 98 30 311 135 453 224 54 34 100 60 102 58 7 -7 25 -151 25
-203 0 -96 32 -146 94 -148 100 -3 121 60 95 291 -17 160 -45 260 -109 389
-102 208 -196 335 -355 482 -162 151 -259 217 -521 357 -357 190 -523 318
-687 531 -119 155 -220 373 -241 523 -5 37 -1 31 22 -36 63 -178 160 -317 324
-461 204 -179 289 -236 582 -391 217 -114 283 -154 404 -244 266 -197 482
-502 564 -795 13 -46 26 -83 30 -83 13 0 117 132 189 240 132 198 231 433 280
661 30 137 32 457 6 614 -36 207 -94 390 -177 556 -46 90 -131 225 -175 274
-26 29 -26 30 -21 5 43 -185 46 -411 7 -566 -27 -107 -85 -241 -145 -332 -47
-72 -72 -92 -43 -35 31 61 89 261 104 361 13 88 13 121 3 201 -52 418 -264
732 -610 906 -77 39 -192 85 -211 85 -6 0 3 -17 19 -37 110 -141 164 -329 142
-495 -11 -79 -45 -193 -74 -244 -16 -29 -16 -28 -8 26 4 30 7 111 6 180 -1
101 -5 137 -24 190 -31 91 -97 185 -191 274 -171 161 -372 214 -650 171z"/>
<path d="M11581 3796 c-52 -29 -50 19 -51 -1154 0 -957 2 -1097 15 -1122 27
-52 113 -57 160 -10 19 20 20 35 25 488 l5 468 39 80 c76 155 252 297 415 334
168 39 330 -35 396 -181 54 -121 57 -155 62 -674 6 -529 5 -527 66 -543 43
-12 87 2 115 34 l23 27 -4 531 c-3 506 -4 535 -25 613 -58 222 -185 352 -376
384 -127 21 -252 0 -391 -66 -107 -51 -214 -144 -281 -244 l-44 -66 0 517 c0
380 -3 524 -12 543 -22 48 -88 68 -137 41z"/>
<path d="M10769 3675 c-50 -27 -54 -48 -57 -347 l-3 -278 -115 0 c-109 0 -116
-1 -139 -25 -33 -32 -33 -78 0 -110 23 -24 30 -25 139 -25 l115 0 4 -597 c2
-432 6 -608 15 -634 55 -164 250 -237 476 -179 89 23 188 65 210 89 30 33 30
74 1 109 -34 40 -65 41 -142 5 -48 -22 -73 -27 -143 -27 -101 -1 -148 18 -182
73 l-23 36 -3 563 -3 562 191 0 c189 0 191 0 215 25 33 32 33 78 0 110 -24 25
-26 25 -215 25 l-190 0 0 280 c0 301 -3 321 -51 346 -35 17 -66 17 -100 -1z"/>
<path d="M16555 3629 c-141 -18 -302 -83 -430 -174 -84 -59 -223 -209 -279
-298 -251 -402 -230 -919 53 -1294 137 -182 335 -318 546 -374 116 -31 346
-31 460 0 91 24 219 83 301 137 64 42 61 43 95 -48 36 -97 87 -129 143 -93 55
36 59 123 11 237 -15 35 -29 70 -31 78 -3 8 18 47 47 85 69 95 143 249 176
370 26 93 28 113 28 290 0 177 -2 197 -28 290 -120 434 -457 747 -857 795 -96
11 -135 11 -235 -1z m302 -205 c32 -8 94 -32 138 -54 238 -120 401 -347 460
-639 26 -124 17 -324 -19 -446 -28 -92 -91 -231 -124 -273 l-18 -24 -39 48
c-41 50 -117 104 -147 104 -51 0 -108 -58 -108 -111 0 -13 29 -49 80 -99 44
-43 80 -83 80 -89 0 -31 -188 -136 -300 -167 -88 -24 -280 -24 -369 0 -281 76
-502 321 -584 646 -32 129 -30 340 5 471 84 312 280 536 545 623 112 37 278
41 400 10z"/>
<path d="M5940 2581 c0 -1034 0 -1038 21 -1065 40 -50 123 -51 167 -1 l22 26
0 465 0 464 516 0 516 0 29 29 c32 33 37 65 13 99 -36 52 -35 52 -574 52
l-500 0 0 385 0 385 599 0 600 0 35 34 c48 44 50 94 7 137 l-29 29 -711 0
-711 0 0 -1039z"/>
<path d="M14861 3076 c-52 -29 -50 -7 -51 -804 l0 -744 30 -30 c28 -28 36 -30
78 -25 36 4 53 12 74 36 l28 31 0 399 c0 366 2 404 20 477 26 100 87 230 135
282 77 86 201 143 364 167 81 12 100 19 119 40 30 35 29 86 -2 122 -22 25 -31
28 -103 31 -95 5 -176 -14 -278 -63 -88 -42 -153 -98 -216 -188 l-49 -70 0
136 c0 84 -5 146 -12 162 -22 48 -88 68 -137 41z"/>
<path d="M8035 3069 c-250 -36 -475 -208 -589 -450 -59 -123 -71 -185 -71
-354 0 -179 13 -233 86 -383 109 -220 321 -382 555 -422 88 -16 276 -8 359 14
33 9 102 37 153 62 234 117 386 366 252 412 -50 18 -85 -1 -121 -66 -41 -71
-130 -160 -200 -199 -141 -80 -325 -100 -467 -50 -97 34 -160 76 -235 157 -91
99 -167 266 -167 369 l0 31 669 0 c601 0 669 2 675 16 11 27 7 118 -9 209 -49
279 -231 509 -483 611 -114 46 -271 62 -407 43z m240 -164 c238 -50 425 -256
461 -507 l6 -48 -582 0 -582 0 7 47 c53 355 356 578 690 508z"/>
<path d="M9605 3074 c-126 -19 -276 -72 -400 -142 -125 -70 -153 -105 -134
-162 21 -60 75 -66 140 -16 67 51 222 125 307 147 47 12 109 19 166 19 149 0
244 -35 327 -121 86 -88 119 -191 119 -372 0 -91 -2 -98 -17 -92 -48 20 -158
47 -258 61 -137 21 -325 14 -436 -15 -348 -90 -509 -384 -363 -662 59 -112
158 -196 284 -241 57 -20 84 -23 210 -23 138 0 150 2 240 33 122 42 219 100
300 179 35 35 65 63 66 63 1 0 4 -36 5 -79 5 -94 22 -124 89 -158 95 -49 186
-20 197 63 4 33 1 45 -21 71 -15 18 -38 33 -54 35 l-27 3 -6 460 c-5 454 -6
461 -30 542 -33 106 -79 181 -156 253 -67 64 -155 111 -248 135 -60 16 -244
27 -300 19z m270 -809 c88 -14 172 -35 228 -57 l27 -10 0 -141 c0 -122 -3
-146 -21 -183 -28 -60 -116 -144 -188 -183 -282 -150 -582 -98 -688 118 -24
47 -28 69 -28 136 0 70 4 87 30 134 35 63 79 102 160 141 120 57 300 75 480
45z"/>
<path d="M13698 3065 c-262 -50 -490 -241 -587 -493 -39 -103 -54 -186 -53
-312 1 -360 214 -663 547 -776 115 -39 302 -45 430 -15 185 45 341 147 434
286 69 104 70 170 1 193 -49 17 -83 -1 -123 -66 -19 -31 -64 -85 -99 -118
-109 -105 -240 -157 -393 -157 -299 0 -522 210 -579 546 l-7 37 675 0 675 0 3
43 c2 23 0 80 -4 127 -28 329 -268 617 -578 694 -94 24 -249 29 -342 11z m324
-176 c88 -29 143 -63 217 -133 98 -95 161 -219 186 -368 l6 -38 -581 0 -580 0
0 28 c0 44 28 141 61 212 76 163 215 275 392 316 81 18 217 11 299 -17z"/>
</g>
</svg>
